<svg xmlns="http://www.w3.org/2000/svg" viewBox="0 0 283.45 487.8"><defs><style>.cls-1{fill:#fff;}</style></defs><title>microscope</title><g id="Layer_2" data-name="Layer 2"><g id="Layer_1-2" data-name="Layer 1"><path class="cls-1" d="M0,461.79V412.16H175.69c.72-14.26,1.46-28,2.11-41.74.41-8.65.57-17.31,1-25.95S189.54,326.26,199,325c13.18-1.72,22.82,4.49,28.93,16.25,7.49,14.4,16.23,28.15,24.47,42.16,4.8,8.15,9.86,16.15,14.42,24.42,1.76,3.19,3.64,4.67,7.32,4.23a84.19,84.19,0,0,1,9.31-.07v49.78ZM204.15,361.08a12.45,12.45,0,0,0,12.42-12.27c0-6.63-6.25-12.81-12.84-12.67a12.79,12.79,0,0,0-12.18,12.58C191.52,356.1,196.67,361.15,204.15,361.08Z"/><path class="cls-1" d="M145.11,65.79c4.61-16.2,9.12-32.06,13.7-48.19l-4-2c1.48-5.19,2.92-10.23,4.44-15.58l48.57,13.77c-1.51,5.32-2.93,10.34-4.4,15.51L199,29c-4.54,16-9.09,31.94-13.73,48.27L214,85.51c-2.61,9.21-5.13,18.09-7.85,27.65l-12-3.09-2.09,5.46C166,113.7,149.83,130,144.91,146.71c-5.44,18.52,1,40.14,23.61,52.46-2.88,10.21-5.79,20.5-8.82,31.22l6.55,2.37c-3.41,12.11-6.84,24.27-10.41,36.92-6.27-1.71-12.33-3.1-18.19-5.08-3.16-1.07-4.18-.11-4.83,2.73-.7,3-1.68,6-2.61,9.25l-8.63-1.9c-1.14,3.8-2.22,7.38-3.46,11.53L92.43,279c1-4,2-7.74,3.1-11.8l-8.27-2.76,3.43-13.08L69,245.06c3.52-12.44,7-24.6,10.47-37l6.86,1.57c11.38-40,22.73-80,34.21-120.45l-12-3.75,7.75-27.68Z"/><path class="cls-1" d="M241.2,345.75c-5.41-8.8-8.16-19.52-17.43-24.41,5.86-9.23,12.53-17.79,17.12-27.35,17.72-36.87,3.46-83.38-31.41-104.7-2.36-1.45-4.06-1.54-6.69-.22-13.28,6.63-26.21,5.62-37.66-3.92-10.74-9-14.79-20.88-11.12-34.48s12.78-22.14,26.92-24.88c19-3.68,37.12,9.84,40,29.69a8.3,8.3,0,0,0,3.22,5.3c31.71,19.52,50.61,47.86,55.26,84.51,4.91,38.73-7.71,72-36,99.09a9.53,9.53,0,0,1-1.16.94A5.64,5.64,0,0,1,241.2,345.75ZM186,144c-8.2,0-14.2,5.89-14.22,14,0,8.39,6.21,14.74,14.32,14.58A14.09,14.09,0,0,0,200,158.09C200,149.9,194.14,144,186,144Z"/><path class="cls-1" d="M8.53,325.16c3.38-12,6.6-23.38,10-35.58L148.41,326.4c-.56,2.27-1,4.44-1.62,6.6-1.46,5.4.58,8.42,6.25,9,5.09.54,10.2,1,16.07,1.51-.45,10.21-.91,20.57-1.38,31.39-23.84.89-45.31-8.37-68-13.08.5-1.9.83-3.45,1.32-5s1.1-2.76,2-4.88Z"/><path class="cls-1" d="M15.49,487.62V470.1h57v17.52Z"/><path class="cls-1" d="M267.88,487.8H211.21V470.09h56.67Z"/><path class="cls-1" d="M204.15,361.08c-7.48.07-12.63-5-12.6-12.36a12.79,12.79,0,0,1,12.18-12.58c6.59-.14,12.87,6,12.84,12.67A12.45,12.45,0,0,1,204.15,361.08Z"/><path class="cls-1" d="M186,144c8.18,0,14.06,5.89,14,14.08a14.09,14.09,0,0,1-13.94,14.47c-8.11.16-14.34-6.19-14.32-14.58C171.76,149.9,177.76,144,186,144Z"/></g></g></svg>